<svg height="260pt" preserveAspectRatio="xMidYMid meet" viewBox="0 0 260 260" width="260pt" xmlns="http://www.w3.org/2000/svg"><g transform="matrix(.1 0 0 -.1 0 260)"><path d="m980 2545v-55h-60-60v-245-245h125 125v60 60h60 60v125 125h185 185v-120-120h65 65v-65-65h60 60v185 185h-60-60v60 59l-62 3-63 3-3 53-3 52h-310-309z"/><path d="m1360 1810v-60h125 125v60 60h-125-125z"/><path d="m1107 1623c-4-3-7-201-7-440v-433h-60-60l2-372 3-373 62-3 63-3 2 313 3 313 182 3 183 2 2-312 3-313h60 60l3 307 2 307 58 3 57 3 3 187 2 187 63 3 62 3v60 60l-62 3-63 3v244 243l-61 4c-33 1-63 1-65-1s-4-143-4-313v-308h-185-185v315 315h-58c-32 0-62-3-65-7z"/><path d="m1360 1380v-250h60 60l-2 248-3 247-57 3-58 3z"/><path d="m860 1435v-65h-65-65v-60-60h-60-60v-65-65h-60-60v-60-60h60 60v60 60h60 60v65 65h65 65v60 60h60 60v65 65h-60-60z"/><path d="m237 624c-4-4-7-61-7-126v-118h315 316l-3 123-3 122h-60-60l-3-62-3-63h-184-184l-3 63-3 62-55 3c-31 2-59 0-63-4z"/></g></svg>