<svg viewBox="0 0 219.44 17" xmlns="http://www.w3.org/2000/svg" xmlns:xlink="http://www.w3.org/1999/xlink"><filter id="a" filterUnits="userSpaceOnUse"><feOffset dx="0" dy="0"/><feGaussianBlur result="blur" stdDeviation=".31"/><feFlood flood-color="#ff50a8" flood-opacity=".9"/><feComposite in2="blur" operator="in"/><feComposite in="SourceGraphic"/></filter><filter id="b" filterUnits="userSpaceOnUse"><feOffset dx="0" dy="0"/><feGaussianBlur result="blur-2" stdDeviation=".89"/><feFlood flood-color="#ff39a6"/><feComposite in2="blur-2" operator="in"/><feComposite in="SourceGraphic"/></filter><filter id="c" filterUnits="userSpaceOnUse"><feOffset dx="0" dy="0"/><feGaussianBlur result="blur-3" stdDeviation=".89"/><feFlood flood-color="#ff39a6"/><feComposite in2="blur-3" operator="in"/><feComposite in="SourceGraphic"/></filter><filter id="d" filterUnits="userSpaceOnUse"><feOffset dx="0" dy="0"/><feGaussianBlur result="blur-4" stdDeviation=".89"/><feFlood flood-color="#ff39a6"/><feComposite in2="blur-4" operator="in"/><feComposite in="SourceGraphic"/></filter><filter id="e" filterUnits="userSpaceOnUse"><feOffset dx="0" dy="0"/><feGaussianBlur result="blur-5" stdDeviation=".89"/><feFlood flood-color="#ff39a6"/><feComposite in2="blur-5" operator="in"/><feComposite in="SourceGraphic"/></filter><filter id="f" filterUnits="userSpaceOnUse"><feOffset dx="0" dy="0"/><feGaussianBlur result="blur-6" stdDeviation=".89"/><feFlood flood-color="#ff39a6"/><feComposite in2="blur-6" operator="in"/><feComposite in="SourceGraphic"/></filter><filter id="g" filterUnits="userSpaceOnUse"><feOffset dx="0" dy="0"/><feGaussianBlur result="blur-7" stdDeviation=".89"/><feFlood flood-color="#ff39a6"/><feComposite in2="blur-7" operator="in"/><feComposite in="SourceGraphic"/></filter><filter id="h" filterUnits="userSpaceOnUse"><feOffset dx="0" dy="0"/><feGaussianBlur result="blur-8" stdDeviation=".89"/><feFlood flood-color="#ff39a6"/><feComposite in2="blur-8" operator="in"/><feComposite in="SourceGraphic"/></filter><filter id="i" filterUnits="userSpaceOnUse"><feOffset dx="0" dy="0"/><feGaussianBlur result="blur-9" stdDeviation=".89"/><feFlood flood-color="#ff39a6"/><feComposite in2="blur-9" operator="in"/><feComposite in="SourceGraphic"/></filter><filter id="j" filterUnits="userSpaceOnUse"><feOffset dx="0" dy="0"/><feGaussianBlur result="blur-10" stdDeviation=".89"/><feFlood flood-color="#ff39a6"/><feComposite in2="blur-10" operator="in"/><feComposite in="SourceGraphic"/></filter><g fill="#fff"><path d="m9.42 15.39v-1.99h-3.98l-1.21 1.99h-4.23l9.46-13.78h3.48v13.78zm0-8.6h-.04l-2.27 3.82h2.31z"/><path d="m19.92 5.63c-.15-.99-.56-1.34-1.25-1.34-.65 0-1.21.47-1.21 1.08 0 .82.74 1.19 2.25 1.84 3.04 1.3 3.8 2.4 3.8 4.21 0 2.66-1.82 4.23-4.8 4.23s-4.97-1.56-4.97-4.52v-.3h3.5c.02 1.14.58 1.88 1.45 1.88.73 0 1.32-.58 1.32-1.32 0-1.1-1.53-1.58-2.77-2.09-2.25-.91-3.28-2.1-3.28-3.89 0-2.35 2.27-4.06 4.8-4.06.91 0 1.71.2 2.44.58 1.47.76 2.18 1.86 2.2 3.71h-3.48z"/><path d="m30.2 5.63c-.15-.99-.56-1.34-1.25-1.34-.65 0-1.21.47-1.21 1.08 0 .82.74 1.19 2.25 1.84 3.03 1.3 3.8 2.4 3.8 4.21 0 2.66-1.82 4.23-4.8 4.23s-4.97-1.56-4.97-4.52v-.3h3.5c.02 1.14.58 1.88 1.45 1.88.73 0 1.32-.58 1.32-1.32 0-1.1-1.53-1.58-2.77-2.09-2.25-.91-3.28-2.1-3.28-3.89 0-2.35 2.27-4.06 4.8-4.06.91 0 1.71.2 2.44.58 1.47.76 2.18 1.86 2.2 3.71h-3.48z"/><path d="m43.66 15.24c-.47.2-1.56.41-2.4.41-3.98 0-7.08-3-7.08-7.11 0-4.51 3.3-7.19 7.22-7.19.89 0 1.55.13 2.27.41v3.3c-.65-.37-1.32-.61-2.29-.61-1.55 0-2.79.91-3.39 2.4h5.51v3.09h-5.57c.56 1.68 1.88 2.63 3.46 2.63.95 0 1.64-.22 2.25-.65v3.33z"/><path d="m47.14 15.39v-10.69h-2.72v-3.09h8.94v3.09h-2.7v10.69z"/><path d="m71.74 15.38v-8.21h-.04l-5.75 8.21h-2.92v-8.21h-.04l-5.34 8.21h-4.04l9.45-13.78h3.48v7.58h.04l5.19-7.58h3.48v13.78h-3.52z"/><path d="m85.33 15.38-1.21-1.99h-3.98v1.99h-3.52v-13.78h3.48l9.46 13.78zm-5.15-8.6h-.04v3.82h2.31z"/><path d="m98.29 15.38-5.29-8.42.09 8.42h-3.37v-13.78h3.03l5.36 8.71-.15-8.71h3.37v13.78h-3.05z"/><path d="m111.89 15.38-.67-1.99h-4.79l-.73 1.99h-3.78l5.53-13.78h2.77l5.47 13.78h-3.82zm-3.02-9.48-.06-.02-1.42 4.71h2.89l-1.42-4.69z"/><path d="m129.65 8.32c0 3.71-2.72 7.34-7.35 7.34-4.08 0-7.32-3.18-7.32-7.22s3.37-7.09 7.37-7.09c3.11 0 6.11 2.1 6.89 4.88h-3.95c-.65-1.14-1.71-1.79-3.04-1.79-2.22 0-3.76 1.79-3.76 4s1.45 4.13 3.78 4.13c1.64 0 2.87-.8 3.3-2.22h-4.11v-2.81h8.19z"/><path d="m130.82 15.38v-13.78h7.65v3.09h-4.28v2.14h4.15v3.09h-4.15v2.36h4.28v3.09h-7.65z"/><path d="m146.41 15.38-3.18-4.45h-.04v4.45h-3.37v-13.78h4.51c1.43 0 2.53.19 3.26.5 1.49.67 2.53 2.29 2.53 4.25 0 2.18-1.3 3.97-3.43 4.34l3.74 4.69zm-1.92-6.85c1.4 0 2.25-.65 2.25-1.97 0-1.19-.89-1.86-2.22-1.86h-1.34v3.84h1.3z"/></g><g filter="url(#a)"><g fill="#ff1899"><path d="m154.5 10.02c.26 0 .46.21.46.46s-.21.46-.46.46h-3.21c-.26 0-.46-.21-.46-.46s.21-.46.46-.46zm0-.5h-3.21c-.53 0-.96.43-.96.96s.43.96.96.96h3.21c.53 0 .96-.43.96-.96s-.43-.96-.96-.96z"/><path d="m157.84 2.04c.26 0 .46.21.46.46s-.21.46-.46.46h-6.18c-.26 0-.46-.21-.46-.46s.21-.46.46-.46zm0-.5h-6.18c-.53 0-.96.43-.96.96s.43.96.96.96h6.18c.53 0 .96-.43.96-.96s-.43-.96-.96-.96z"/><path d="m156.31 14.02c.26 0 .46.21.46.46s-.21.46-.46.46h-3.03c-.26 0-.46-.21-.46-.46s.21-.46.46-.46zm0-.5h-3.03c-.53 0-.96.43-.96.96s.43.96.96.96h3.03c.53 0 .96-.43.96-.96s-.43-.96-.96-.96z"/><path d="m155.43 6.03c.26 0 .46.21.46.46s-.21.46-.46.46h-.64c-.26 0-.46-.21-.46-.46s.21-.46.46-.46zm0-.5h-.64c-.53 0-.96.43-.96.96s.43.96.96.96h.64c.53 0 .96-.43.96-.96s-.43-.96-.96-.96z"/></g><path d="m168.53 9.11c-1.23-1.49-2.78-2.3-4.45-2.3-.35 0-.67.04-.98.1.74-1.15 1.81-1.81 3.01-1.81 1.84 0 2.93 1.36 2.61 3.22-.05.29-.12.55-.2.79z" fill="none" filter="url(#b)" stroke="#ff1899" stroke-miterlimit="10" stroke-width=".29"/><path d="m166.76 1.39c-4.09 0-7.76 3.27-8.46 7.32-.65 3.77 2.19 6.9 6.04 6.9 1.4 0 2.64-.31 4.03-1.07.49.67 1.66 1.07 3.05 1.07.26 0 .41 0 .86-.04l.48-2.77c-.13.02-.28.02-.37.02-.54 0-1.04-.17-1.34-.48.99-1.13 1.54-2.37 1.81-3.94.64-3.7-1.93-7.01-6.09-7.01zm-1.93 11.15c-1.35 0-2.53-.89-2.93-2.31.47-.15.81-.22 1.24-.22 1.4 0 2.34.59 3.32 2.2-.5.24-1.09.33-1.63.33zm4.54-4.22c-.12.72-.35 1.4-.81 2.01-1.18-1.83-2.81-2.88-4.58-2.88-.72 0-1.31.18-2.02.46v-.02c.8-2.14 2.41-3.44 4.28-3.44 2.26 0 3.51 1.72 3.14 3.86z" fill="#ffc3e4" filter="url(#c)"/><path d="m164.94 11.9c-.89 0-1.67-.47-2.12-1.24h.21c.85 0 1.57.22 2.36 1.23-.14.02-.29.03-.45.03z" fill="none" filter="url(#d)" stroke="#ff1899" stroke-linejoin="round" stroke-width=".29"/><path d="m218.05 1.01h-9.51l-.11.64-.31 1.8c-.25-.87-.82-1.54-1.73-2.06-.77-.43-1.62-.65-2.61-.65-1.39 0-2.8.46-3.96 1.29-1.23.88-2.04 2.08-2.26 3.39-.35 2.03.56 3.45 2.88 4.46.11.05.23.1.34.15.1.04.21.09.32.13h-4.58l-.1.56-1.01.63c-.59.37-1.2.53-1.96.53-1.02 0-1.8-.48-2.2-1.32h5.16l.11-.64.53-3.07.11-.64h-5.02c.68-.71 1.54-1.1 2.46-1.1s1.43.25 1.86.53l.86.55.19-1.1.57-3.27.08-.44-.38-.16c-.77-.32-1.47-.45-2.41-.45-2.12 0-4.2.73-5.84 2.06-1.24 1-2.17 2.27-2.76 3.74l.85-4.9.11-.64h-4.78l-.11.64-1.46 8.45c-.27 1.53-1.19 1.76-1.72 1.76-.42 0-1.54 0-1.19-2.02l1.42-8.19.11-.64h-4.78l-.11.64-1.47 8.5c-.12.71-.17 1.35-.17 1.91l-.71.1c-.09.01-.21.01-.28.01-.18 0-.36-.03-.51-.07.77-1.06 1.26-2.25 1.51-3.7.34-1.97-.15-3.91-1.36-5.35-1.25-1.48-3.12-2.3-5.26-2.3-4.39 0-8.44 3.5-9.21 7.96-.34 1.99.17 3.88 1.45 5.33 1.24 1.4 3.11 2.21 5.11 2.21 1.39 0 2.62-.29 3.92-.93.68.59 1.82.93 3.16.93.27 0 .43 0 .91-.04l.6-.05.1-.59.48-2.77.1-.55c.12 3.24 2.32 3.98 4.32 3.98 1 0 2-.29 2.84-.79l-.09.53h4.59l.11-.64.85-4.91c.21 3.42 2.73 5.81 6.45 5.81.88 0 2.1-.21 2.72-.46l.41-.17.07-.42.5-2.91c.02 1.08.36 1.99 1 2.66.82.85 2.13 1.3 3.78 1.3 3.34 0 5.73-1.85 6.25-4.84.38-2.2-.49-3.45-3.33-4.77-1.28-.6-1.7-.86-1.63-1.24.04-.23.33-.43.64-.43.25 0 .49 0 .47.79v.55s.54 0 .54 0h4.1l.11-.65c.02-.09.03-.19.04-.28h2.26l-1.72 9.97-.11.64h4.78l.11-.64 1.72-9.97h2.68l.11-.64.53-3.07.11-.64h-.64z" fill="none" filter="url(#e)" stroke="#ff1899" stroke-linejoin="round" stroke-width=".75"/><g fill="#ffc3e4"><path d="m184.62 15.33h-3.31l.24-1.37h-.06c-.84 1.04-2.22 1.63-3.57 1.63-2.96 0-4.27-1.72-3.63-5.43l1.47-8.5h3.49l-1.42 8.19c-.29 1.7.26 2.66 1.72 2.66 1.28 0 2.21-.92 2.47-2.4l1.46-8.45h3.49l-2.37 13.68z" filter="url(#f)"/><path d="m195.12 15.18c-.5.2-1.62.41-2.46.41-3.96 0-6.51-2.98-5.8-7.06.77-4.47 4.51-7.14 8.41-7.14.89 0 1.51.13 2.18.41l-.57 3.27c-.58-.37-1.21-.61-2.17-.61-1.53 0-2.93.91-3.78 2.38h5.47l-.53 3.07h-5.53c.27 1.66 1.42 2.61 2.99 2.61.94 0 1.67-.22 2.35-.65l-.57 3.31z" filter="url(#g)"/><path d="m204.09 5.64c.02-.98-.32-1.33-1.01-1.33-.65 0-1.28.46-1.39 1.07-.14.81.53 1.18 1.92 1.83 2.79 1.29 3.36 2.38 3.05 4.18-.46 2.64-2.54 4.2-5.5 4.2s-4.67-1.55-4.16-4.49l.05-.3h3.48c-.18 1.13.25 1.87 1.12 1.87.72 0 1.41-.57 1.54-1.31.19-1.09-1.24-1.57-2.4-2.07-2.08-.91-2.89-2.09-2.59-3.86.4-2.33 2.95-4.03 5.47-4.03.91 0 1.67.2 2.32.57 1.33.76 1.84 1.85 1.55 3.68h-3.46z" filter="url(#h)"/></g><path d="m201.26 10.23c.7.31 1.36.68 1.29 1.13-.07.38-.41.67-.79.67-.72 0-.63-.95-.59-1.24z" fill="none" filter="url(#i)" stroke="#ff1899" stroke-miterlimit="10" stroke-width=".29"/><path d="m217.41 4.72h-2.68l-1.83 10.61h-3.5l1.84-10.61h-2.7l.53-3.07h8.87z" fill="#ffc3e4" filter="url(#j)"/></g></svg>