<?xml version="1.0" encoding="utf-8"?>
<!-- Generator: Adobe Illustrator 28.3.0, SVG Export Plug-In . SVG Version: 6.00 Build 0)  -->
<svg version="1.1" id="Layer_1" xmlns="http://www.w3.org/2000/svg" xmlns:xlink="http://www.w3.org/1999/xlink" x="0px" y="0px"
	 viewBox="0 0 1200 1200" style="enable-background:new 0 0 1200 1200;" xml:space="preserve">
<path fill="#FFFFFF" d="M938.2,202.9H791.1v29.4h-58.8l-29.4,0h-29.4v29.4H555.9v29.4H438.2v58.8l-29.4,0v441.3h-88.2v29.4h-58.8V850h-29.4v117.6
	h29.4V997h117.6v-29.4l29.4,0h29.4v-58.8h29.4l0-29.4V497.1h117.8v-29.4h117.6v-29.4h117.6l0-29.4h88.3v294h-88.3v29.4h-58.8v29.6
	h-29.4v117.6h29.4v29.4h117.8v-29.4h58.8v-58.8h29.4v-58.8l0-29.6V232.4l-29.4,0L938.2,202.9z"/>
</svg>
