<svg height="1200pt" viewBox="0 0 1200 1200" width="1200pt" xmlns="http://www.w3.org/2000/svg"><g fill="#fff"><path d="m797.64 910.56h56.52v56.52h-56.52z"/><path d="m515.28 910.56h56.52v56.52h-56.52z"/><path d="m458.88 910.56h56.52v56.52h-56.52z"/><path d="m854.16 854.16h56.52v56.52h-56.52z"/><path d="m515.28 854.16h56.52v56.52h-56.52z"/><path d="m458.88 854.16h56.52v56.52h-56.52z"/><path d="m402.36 854.16h56.52v56.52h-56.52z"/><path d="m910.56 797.64h56.52v56.52h-56.52z"/><path d="m741.12 797.64h56.52v56.52h-56.52z"/><path d="m515.28 797.64h56.52v56.52h-56.52z"/><path d="m402.36 797.64h56.52v56.52h-56.52z"/><path d="m345.84 797.64h56.52v56.52h-56.52z"/><path d="m967.08 741.12h56.52v56.52h-56.52z"/><path d="m797.64 741.12h56.52v56.52h-56.52z"/><path d="m515.28 741.12h56.52v56.52h-56.52z"/><path d="m345.84 741.12h56.52v56.52h-56.52z"/><path d="m289.44 741.12h56.52v56.52h-56.52z"/><path d="m967.08 684.72h56.52v56.52h-56.52z"/><path d="m854.16 684.72h56.52v56.52h-56.52z"/><path d="m684.72 684.72h56.52v56.52h-56.52z"/><path d="m515.28 684.72h56.52v56.52h-56.52z"/><path d="m289.44 684.72h56.52v56.52h-56.52z"/><path d="m232.92 684.72h56.52v56.52h-56.52z"/><path d="m1023.5 628.2h56.52v56.52h-56.52z"/><path d="m854.16 628.2h56.52v56.52h-56.52z"/><path d="m741.12 628.2h56.52v56.52h-56.52z"/><path d="m571.8 628.2h56.52v56.52h-56.52z"/><path d="m515.28 628.2h56.52v56.52h-56.52z"/><path d="m232.92 628.2h56.52v56.52h-56.52z"/><path d="m176.52 628.2h56.52v56.52h-56.52z"/><path d="m120 628.2h56.52v56.52h-56.52z"/><path d="m1023.5 571.8h56.52v56.52h-56.52z"/><path d="m854.16 571.8h56.52v56.52h-56.52z"/><path d="m741.12 571.8h56.52v56.52h-56.52z"/><path d="m571.8 571.8h56.52v56.52h-56.52z"/><path d="m515.28 571.8h56.52v56.52h-56.52z"/><path d="m232.92 571.8h56.52v56.52h-56.52z"/><path d="m176.52 571.8h56.52v56.52h-56.52z"/><path d="m120 571.8h56.52v56.52h-56.52z"/><path d="m1023.5 515.28h56.52v56.52h-56.52z"/><path d="m854.16 515.28h56.52v56.52h-56.52z"/><path d="m741.12 515.28h56.52v56.52h-56.52z"/><path d="m571.8 515.28h56.52v56.52h-56.52z"/><path d="m515.28 515.28h56.52v56.52h-56.52z"/><path d="m232.92 515.28h56.52v56.52h-56.52z"/><path d="m176.52 515.28h56.52v56.52h-56.52z"/><path d="m120 515.28h56.52v56.52h-56.52z"/><path d="m967.08 458.88h56.52v56.52h-56.52z"/><path d="m854.16 458.88h56.52v56.52h-56.52z"/><path d="m684.72 458.88h56.52v56.52h-56.52z"/><path d="m515.28 458.88h56.52v56.52h-56.52z"/><path d="m289.44 458.88h56.52v56.52h-56.52z"/><path d="m232.92 458.88h56.52v56.52h-56.52z"/><path d="m967.08 402.36h56.52v56.52h-56.52z"/><path d="m797.64 402.36h56.52v56.52h-56.52z"/><path d="m515.28 402.36h56.52v56.52h-56.52z"/><path d="m345.84 402.36h56.52v56.52h-56.52z"/><path d="m289.44 402.36h56.52v56.52h-56.52z"/><path d="m910.56 345.84h56.52v56.52h-56.52z"/><path d="m741.12 345.84h56.52v56.52h-56.52z"/><path d="m515.28 345.84h56.52v56.52h-56.52z"/><path d="m402.36 345.84h56.52v56.52h-56.52z"/><path d="m345.84 345.84h56.52v56.52h-56.52z"/><path d="m854.16 289.44h56.52v56.52h-56.52z"/><path d="m515.28 289.44h56.52v56.52h-56.52z"/><path d="m458.88 289.44h56.52v56.52h-56.52z"/><path d="m402.36 289.44h56.52v56.52h-56.52z"/><path d="m797.64 232.92h56.52v56.52h-56.52z"/><path d="m515.28 232.92h56.52v56.52h-56.52z"/><path d="m458.88 232.92h56.52v56.52h-56.52z"/></g></svg>